HIERARCHY
ROOT hip
{
  OFFSET 0 0 0
  CHANNELS 6 Xposition Yposition Zposition Zrotation Yrotation Xrotation
  JOINT abdomen
  {
    OFFSET 0 20.6881 -0.73152
    CHANNELS 3 Zrotation Xrotation Yrotation
    JOINT chest
    {
      OFFSET 0 11.7043 -0.48768
      CHANNELS 3 Zrotation Xrotation Yrotation
      JOINT neck
      {
        OFFSET 0 22.1894 -2.19456
        CHANNELS 3 Zrotation Xrotation Yrotation
        JOINT head
        {
          OFFSET -0.24384 7.07133 1.2192
          CHANNELS 3 Zrotation Xrotation Yrotation
          JOINT leftEye
          {
            OFFSET 4.14528 8.04674 8.04672
            CHANNELS 3 Zrotation Xrotation Yrotation
            End Site
            {
              OFFSET 1 0 0
            }
          }
          JOINT rightEye
          {
            OFFSET -3.6576 8.04674 8.04672
            CHANNELS 3 Zrotation Xrotation Yrotation
            End Site
            {
              OFFSET 1 0 0
            }
          }
        }
      }
      JOINT rCollar
      {
        OFFSET -2.68224 19.2634 -4.8768
        CHANNELS 3 Zrotation Xrotation Yrotation
        JOINT rShldr
        {
          OFFSET -8.77824 -1.95073 1.46304
          CHANNELS 3 Zrotation Xrotation Yrotation
          JOINT rForeArm
          {
            OFFSET -28.1742 -1.7115 0.48768
            CHANNELS 3 Zrotation Xrotation Yrotation
            JOINT rHand
            {
              OFFSET -22.5879 0.773209 7.07136
              CHANNELS 3 Zrotation Xrotation Yrotation
              JOINT rThumb1
              {
                OFFSET -1.2192 -0.487915 3.41376
                CHANNELS 3 Zrotation Xrotation Yrotation
                JOINT rThumb2
                {
                  OFFSET -3.37035 -0.52449 3.41376
                  CHANNELS 3 Zrotation Xrotation Yrotation
                  End Site
                  {
                    OFFSET -1.78271 -1.18214 1.43049
                  }
                }
              }
              JOINT rIndex1
              {
                OFFSET -7.75947 0.938293 5.60832
                CHANNELS 3 Zrotation Xrotation Yrotation
                JOINT rIndex2
                {
                  OFFSET -2.54057 -0.884171 1.56538
                  CHANNELS 3 Zrotation Xrotation Yrotation
                  End Site
                  {
                    OFFSET -1.62519 -0.234802 1.16502
                  }
                }
              }
              JOINT rMid1
              {
                OFFSET -8.24714 1.18213 3.41376
                CHANNELS 3 Zrotation Xrotation Yrotation
                JOINT rMid2
                {
                  OFFSET -3.10165 -0.590103 1.0647
                  CHANNELS 3 Zrotation Xrotation Yrotation
                  End Site
                  {
                    OFFSET -2.48547 -0.328903 0.83742
                  }
                }
              }
              JOINT rRing1
              {
                OFFSET -8.82822 0.546677 1.51678
                CHANNELS 3 Zrotation Xrotation Yrotation
                JOINT rRing2
                {
                  OFFSET -2.60934 -0.819778 -0.0198488
                  CHANNELS 3 Zrotation Xrotation Yrotation
                  End Site
                  {
                    OFFSET -2.33842 -0.294052 0.168128
                  }
                }
              }
              JOINT rPinky1
              {
                OFFSET -8.27202 -0.0477905 -0.4584
                CHANNELS 3 Zrotation Xrotation Yrotation
                JOINT rPinky2
                {
                  OFFSET -1.82734 -0.647385 -0.700984
                  CHANNELS 3 Zrotation Xrotation Yrotation
                  End Site
                  {
                    OFFSET -1.69225 -0.51767 -0.607171
                  }
                }
              }
            }
          }
        }
      }
      JOINT lCollar
      {
        OFFSET 2.68224 19.2634 -4.8768
        CHANNELS 3 Zrotation Xrotation Yrotation
        JOINT lShldr
        {
          OFFSET 8.77824 -1.95073 1.46304
          CHANNELS 3 Zrotation Xrotation Yrotation
          JOINT lForeArm
          {
            OFFSET 28.1742 -1.7115 0.48768
            CHANNELS 3 Zrotation Xrotation Yrotation
            JOINT lHand
            {
              OFFSET 22.5879 0.773209 7.07136
              CHANNELS 3 Zrotation Xrotation Yrotation
              JOINT lThumb1
              {
                OFFSET 1.2192 -0.487915 3.41376
                CHANNELS 3 Zrotation Xrotation Yrotation
                JOINT lThumb2
                {
                  OFFSET 3.37035 -0.52449 3.41376
                  CHANNELS 3 Zrotation Xrotation Yrotation
                  End Site
                  {
                    OFFSET 1.78271 -1.18214 1.43049
                  }
                }
              }
              JOINT lIndex1
              {
                OFFSET 7.75947 0.938293 5.60832
                CHANNELS 3 Zrotation Xrotation Yrotation
                JOINT lIndex2
                {
                  OFFSET 2.54057 -0.884171 1.56538
                  CHANNELS 3 Zrotation Xrotation Yrotation
                  End Site
                  {
                    OFFSET 1.62519 -0.234802 1.16502
                  }
                }
              }
              JOINT lMid1
              {
                OFFSET 8.24714 1.18213 3.41376
                CHANNELS 3 Zrotation Xrotation Yrotation
                JOINT lMid2
                {
                  OFFSET 3.10165 -0.590103 1.0647
                  CHANNELS 3 Zrotation Xrotation Yrotation
                  End Site
                  {
                    OFFSET 2.48547 -0.328903 0.83742
                  }
                }
              }
              JOINT lRing1
              {
                OFFSET 8.82822 0.546677 1.51678
                CHANNELS 3 Zrotation Xrotation Yrotation
                JOINT lRing2
                {
                  OFFSET 2.60934 -0.819778 -0.0198488
                  CHANNELS 3 Zrotation Xrotation Yrotation
                  End Site
                  {
                    OFFSET 2.33842 -0.294052 0.168128
                  }
                }
              }
              JOINT lPinky1
              {
                OFFSET 8.27202 -0.0477905 -0.4584
                CHANNELS 3 Zrotation Xrotation Yrotation
                JOINT lPinky2
                {
                  OFFSET 1.82734 -0.647385 -0.700984
                  CHANNELS 3 Zrotation Xrotation Yrotation
                  End Site
                  {
                    OFFSET 1.69225 -0.51767 -0.607171
                  }
                }
              }
            }
          }
        }
      }
    }
  }
  JOINT rButtock
  {
    OFFSET -8.77824 4.35084 1.2192
    CHANNELS 3 Zrotation Xrotation Yrotation
    JOINT rThigh
    {
      OFFSET 0 -1.70687 -2.19456
      CHANNELS 3 Zrotation Xrotation Yrotation
      JOINT rShin
      {
        OFFSET 0 -36.8199 0.73152
        CHANNELS 3 Zrotation Xrotation Yrotation
        JOINT rFoot
        {
          OFFSET 0.73152 -45.1104 -5.12064
          CHANNELS 3 Zrotation Xrotation Yrotation
          End Site
          {
            OFFSET -1.1221 -3.69964 12.103
          }
        }
      }
    }
  }
  JOINT lButtock
  {
    OFFSET 8.77824 4.35084 1.2192
    CHANNELS 3 Zrotation Xrotation Yrotation
    JOINT lThigh
    {
      OFFSET 0 -1.70687 -2.19456
      CHANNELS 3 Zrotation Xrotation Yrotation
      JOINT lShin
      {
        OFFSET 0 -36.8199 0.73152
        CHANNELS 3 Zrotation Xrotation Yrotation
        JOINT lFoot
        {
          OFFSET -0.73152 -45.1104 -5.12064
          CHANNELS 3 Zrotation Xrotation Yrotation
          End Site
          {
            OFFSET 1.1221 -3.69964 12.103
          }
        }
      }
    }
  }
}
MOTION
Frames:	4
Frame Time:	0.03333
0.7087208121263273 60.259398593950856 -14.25864458790641 -14.695361137390137 -24.468433380126953 9.51279067993164 8.277398109436035 12.455366134643555 10.464710235595703 0.15440155565738678 -7.872688293457031 2.865044116973877 -3.0020558834075928 13.27499008178711 0.02880358137190342 6.31975793838501 -24.842985153198242 2.35294771194458 0.1512419581413269 0.27478814125061035 0.3482573330402374 0.5305149555206299 -0.723222553730011 -0.03202352672815323 0.4580511450767517 -0.23260636627674103 -0.2863190770149231 63.693241119384766 40.66267776489258 1.3654452562332153 -19.642778396606445 -12.068111419677734 37.18861389160156 0.46409234404563904 14.385598182678223 1.4248573780059814 0.43449604511260986 -0.20923620462417603 0.37491461634635925 -0.2065275013446808 -0.0044813319109380245 -0.24447853863239288 0.09282004833221436 -0.06950705498456955 -0.06218568980693817 7.806773662567139 5.531652927398682 0.7558141946792603 -0.1879715770483017 0.7529904842376709 -0.16846954822540283 2.535684585571289 1.082217812538147 0.7459937930107117 -0.7012403011322021 0.30452123284339905 0.00638209143653512 10.877341270446777 1.0220597982406616 0.5313319563865662 0.12665393948554993 0.12102705240249634 -0.28620973229408264 2.379192590713501 -1.0735074281692505 -1.0018439292907715 -0.15796877443790436 0.17021065950393677 0.07206551730632782 -68.82601165771484 25.847455978393555 -9.442604064941406 14.727874755859375 -7.885147571563721 -24.545440673828125 0.18184973299503326 14.637948989868164 -1.5305293798446655 -0.5985235571861267 0.1921239048242569 -0.11853790283203125 -0.6239252686500549 0.35908591747283936 -0.0802794024348259 0.11599560081958771 -0.7056644558906555 -0.239593967795372 -7.274869441986084 4.828299522399902 -0.192269966006279 0.6700000762939453 0.7556091547012329 0.05283918231725693 -2.3200840950012207 0.8648676872253418 -0.06564623862504959 0.05203133076429367 0.9795039892196655 -0.16712607443332672 -10.406612396240234 0.9700422883033752 -0.28859788179397583 0.619005560874939 -0.2211197167634964 -0.12206297367811203 -2.783674716949463 -0.6921512484550476 -0.23206892609596252 -0.1816955804824829 -0.19296349585056305 -0.32221758365631104 -6.495584487915039 -1.8955870866775513 -4.353436470031738 0.4624149799346924 46.30513000488281 2.0309011936187744 -10.562786102294922 -17.456369400024414 -28.871488571166992 -0.3673131763935089 0.485478937625885 0.1986134648323059 56.45689392089844 -56.79793930053711 46.2890739440918 3.656681537628174 69.3795394897461 -3.0855109691619873 -0.4471580386161804 -0.33121389150619507 1.4950063228607178
0.6905125416552782 60.24340912110386 -14.963221556279802 -14.420951843261719 -24.22284698486328 9.381224632263184 8.087779998779297 12.554108619689941 10.397711753845215 0.1598825454711914 -7.917916774749756 2.8604068756103516 -3.0603930950164795 13.314351081848145 -0.009684858843684196 6.280429363250732 -24.962108612060547 2.261418104171753 0.17576904594898224 0.258518785238266 0.3328782618045807 0.5307480096817017 -0.7369927167892456 -0.04027340188622475 0.4268020689487457 -0.2519809603691101 -0.2804647386074066 63.34358215332031 40.6855583190918 1.8898869752883911 -19.6318359375 -12.058119773864746 37.053367614746094 0.4683355987071991 14.490068435668945 1.4363993406295776 0.4137621819972992 -0.20418716967105865 0.39191097021102905 -0.19021031260490417 -0.01678200624883175 -0.25266262888908386 0.10088192671537399 -0.04645605385303497 -0.06460833549499512 7.825624942779541 5.543166637420654 0.7362352013587952 -0.18512211740016937 0.7635679244995117 -0.1259383112192154 2.523287296295166 1.0918052196502686 0.7431789040565491 -0.7129166126251221 0.3015243709087372 0.007740979082882404 10.883682250976562 1.0335313081741333 0.5202542543411255 0.14474089443683624 0.12682931125164032 -0.289475679397583 2.3747870922088623 -1.0574495792388916 -1.0182009935379028 -0.15069547295570374 0.16339504718780518 0.05427731201052666 -68.91303253173828 25.990501403808594 -9.446784019470215 14.725713729858398 -7.907055377960205 -24.54572296142578 0.13107125461101532 14.544677734375 -1.4971991777420044 -0.6046832203865051 0.17134442925453186 -0.1227281466126442 -0.6248695850372314 0.3514970541000366 -0.049468740820884705 0.11753848940134048 -0.6861247420310974 -0.23262527585029602 -7.291970252990723 4.839773654937744 -0.19821485877037048 0.6803329586982727 0.7466081976890564 0.03845055773854256 -2.3014633655548096 0.8824261426925659 -0.05971559137105942 0.04585198312997818 0.9593402147293091 -0.16450342535972595 -10.377798080444336 0.9838482737541199 -0.3163030445575714 0.6236111521720886 -0.2360433042049408 -0.12100662291049957 -2.768954038619995 -0.6881441473960876 -0.19461357593536377 -0.18686239421367645 -0.22059355676174164 -0.3144772946834564 -6.4661712646484375 -2.4906866550445557 -4.341793537139893 0.46529439091682434 46.74031448364258 2.016082763671875 -10.489208221435547 -17.376832962036133 -28.73245620727539 -0.3578872084617615 0.5321981906890869 0.18096187710762024 55.66967010498047 -56.8719596862793 45.586246490478516 3.7008275985717773 69.4155502319336 -3.1575605869293213 -0.38068437576293945 -0.4099239110946655 1.6925910711288452
0.6698950820370658 60.168598059124704 -15.70699463242237 -13.705978393554688 -23.768428802490234 9.43207836151123 7.478801727294922 12.775327682495117 10.1704683303833 0.24092000722885132 -8.022907257080078 2.8011653423309326 -3.195302963256836 13.344953536987305 -0.19295181334018707 6.2250237464904785 -25.083913803100586 1.9252448081970215 0.18967419862747192 0.2567664384841919 0.3233891725540161 0.5455930829048157 -0.7916341423988342 0.0031244063284248114 0.40285468101501465 -0.24619755148887634 -0.3150925636291504 62.83168029785156 40.46518325805664 2.6303353309631348 -19.606454849243164 -12.014702796936035 36.8151969909668 0.4906824827194214 14.681863784790039 1.4437283277511597 0.3754522204399109 -0.20273621380329132 0.38845571875572205 -0.1380172073841095 -0.06333283334970474 -0.2508925795555115 0.12936556339263916 -0.06248234212398529 -0.07472748309373856 7.851415157318115 5.589321613311768 0.7315648198127747 -0.1787232756614685 0.7716904878616333 -0.08679009974002838 2.5041418075561523 1.0672645568847656 0.7542405128479004 -0.6983770132064819 0.33779245615005493 -0.000948400585912168 10.89959716796875 1.0740817785263062 0.5161713361740112 0.17981544137001038 0.112722247838974 -0.24508050084114075 2.310230016708374 -1.0447115898132324 -0.9992920756340027 -0.16810445487499237 0.1299104541540146 0.052629049867391586 -69.019287109375 26.298383712768555 -9.306156158447266 14.736337661743164 -7.939289569854736 -24.60773277282715 0.09101252257823944 14.258920669555664 -1.4197454452514648 -0.5933510065078735 0.14672516286373138 -0.18061237037181854 -0.663131058216095 0.36040976643562317 -0.014641166664659977 0.11145567148923874 -0.6788241863250732 -0.18680323660373688 -7.31779670715332 4.84991455078125 -0.2351810485124588 0.7215622663497925 0.7284319996833801 0.06809055060148239 -2.2663931846618652 0.898944079875946 -0.08685830980539322 0.04343557357788086 0.9362680315971375 -0.14336228370666504 -10.378084182739258 0.9576864242553711 -0.33601436018943787 0.6071428060531616 -0.2859969437122345 -0.13044524192810059 -2.8024868965148926 -0.7393215894699097 -0.13781987130641937 -0.21957634389400482 -0.22279031574726105 -0.32686373591423035 -6.791247367858887 -4.2673773765563965 -4.106381416320801 0.4402781128883362 48.053077697753906 1.9664450883865356 -10.170584678649902 -17.181751251220703 -27.97862434387207 -0.3494078814983368 0.573657751083374 0.19830487668514252 53.19221115112305 -56.53657531738281 43.35062789916992 3.518430709838867 68.84072875976562 -3.0460472106933594 -0.1423935741186142 -0.8600772619247437 2.3248074054718018
0.6293645260587986 60.30873988051503 -16.510701978201567 -12.549906730651855 -23.111467361450195 9.566816329956055 6.408888816833496 13.117112159729004 9.7718505859375 0.3708479106426239 -8.180328369140625 2.6881892681121826 -3.364694356918335 13.389348030090332 -0.4640060067176819 6.147814750671387 -25.1922607421875 1.4366799592971802 0.20353013277053833 0.24019750952720642 0.30996081233024597 0.5791502594947815 -0.8687823414802551 0.04946773871779442 0.3819230794906616 -0.21589230000972748 -0.3674572706222534 62.16619873046875 40.140438079833984 3.5339598655700684 -19.620635986328125 -11.965645790100098 36.667423248291016 0.48820486664772034 14.729153633117676 1.4107084274291992 0.335429847240448 -0.18816718459129333 0.37918561697006226 -0.06622444838285446 -0.1315498799085617 -0.2557377517223358 0.17003533244132996 -0.11616936326026917 -0.07809916883707047 7.895881175994873 5.658424377441406 0.7188591957092285 -0.18353746831417084 0.7917144298553467 -0.04633977264165878 2.4722118377685547 1.0219677686691284 0.7883457541465759 -0.6565012335777283 0.39523646235466003 -0.015068535692989826 10.925793647766113 1.1520739793777466 0.5049487948417664 0.23174819350242615 0.06760483235120773 -0.18558084964752197 2.198941469192505 -1.0325533151626587 -0.9625033140182495 -0.19666923582553864 0.0755896046757698 0.06514110416173935 -69.08731079101562 26.730358123779297 -9.207290649414062 14.77500057220459 -7.980051517486572 -24.795652389526367 0.042294684797525406 13.86882209777832 -1.2997682094573975 -0.5688394904136658 0.12610721588134766 -0.2749967575073242 -0.7138270735740662 0.35096296668052673 0.04292435944080353 0.10829740762710571 -0.6818435192108154 -0.11547727137804031 -7.379119396209717 4.8703694343566895 -0.2953370213508606 0.7726157903671265 0.7007864713668823 0.11457060277462006 -2.2069156169891357 0.9101448655128479 -0.1279257833957672 0.046582192182540894 0.9130334854125977 -0.12865962088108063 -10.399526596069336 0.9270772337913513 -0.3654092252254486 0.5748293995857239 -0.33716893196105957 -0.14413610100746155 -2.8498668670654297 -0.8193627595901489 -0.0608971081674099 -0.26961371302604675 -0.21893607079982758 -0.3475351631641388 -7.502680778503418 -7.489007949829102 -3.794259548187256 0.3833628296852112 50.3123779296875 1.9131107330322266 -9.645216941833496 -16.86021614074707 -26.6328125 -0.3478093445301056 0.6126917004585266 0.24197015166282654 49.073001861572266 -55.68722915649414 39.61722946166992 3.2011570930480957 67.68212127685547 -2.8343405723571777 0.27059680223464966 -1.660874605178833 3.401353120803833
